<svg id="Capa_1" enable-background="new 0 0 512 512" height="512" viewBox="0 0 512 512" width="512" xmlns="http://www.w3.org/2000/svg"><g><path d="m271 287.968h-30v-35.028c0-27.586 22.442-50.028 50.028-50.028h66.428c11.044 0 20.028-8.984 20.028-20.028s-8.984-20.028-20.028-20.028h-202.912c-27.585 0-50.028-22.443-50.028-50.028s22.442-50.028 50.028-50.028h66.428c11.044 0 20.028-8.985 20.028-20.028v-42.772h30v42.772c0 27.585-22.442 50.028-50.028 50.028h-66.428c-11.043 0-20.028 8.984-20.028 20.028s8.984 20.028 20.028 20.028h202.912c27.586 0 50.028 22.442 50.028 50.028s-22.442 50.028-50.028 50.028h-66.428c-11.044 0-20.028 8.985-20.028 20.028z" fill="#ebebf0"/><path d="m392.483 272.968h-136.483l-20.016 93.954 20.016 100.042h43.017c22.608 28.341 56.977 45.036 93.466 45.036 65.902 0 119.517-53.615 119.517-119.516s-53.615-119.516-119.517-119.516z" fill="#323c3c"/><path d="m119.516 272.968c-65.901 0-119.516 53.615-119.516 119.516s53.615 119.516 119.516 119.516c36.487 0 70.859-16.698 93.466-45.036h43.018v-193.996z" fill="#495959"/><path d="m169.557 377.484h-35.04v-35.04h-30v35.04h-35.04v30h35.04v35.04h30v-35.04h35.04z" fill="#03232e"/><path d="m412.499 394.825h30.024v30h-30.024z" fill="#5ecef4"/><path d="m342.443 394.825h30.024v30h-30.024z" fill="#ff5b5b"/><path d="m377.472 334.777h30.023v30h-30.023z" fill="#00aa63"/><path d="m271.012 334.777h30.024v30h-30.024z" fill="#ebebf0"/><path d="m210.964 334.777h30.024v30h-30.024z" fill="#fff5f5"/></g></svg>